<svg xmlns="http://www.w3.org/2000/svg" xmlns:xlink="http://www.w3.org/1999/xlink" width="1200" zoomAndPan="magnify" viewBox="0 0 900 149.999998" height="200" preserveAspectRatio="xMidYMid meet" version="1.0"><defs><g/><clipPath id="e892c1a48c"><path d="M 7.417969 9.136719 L 116.917969 9.136719 L 116.917969 144.886719 L 7.417969 144.886719 Z M 7.417969 9.136719 " clip-rule="nonzero"/></clipPath></defs><g fill="#46c2db" fill-opacity="1"><g transform="translate(85.68937, 140.720808)"><g><path d="M 51.234375 -48.84375 L 37.828125 -48.84375 L 37.828125 0 L 10.828125 0 L 10.828125 -133.671875 L 53.890625 -133.671875 C 67.410156 -133.671875 77.859375 -130.164062 85.234375 -123.15625 C 92.609375 -116.144531 96.296875 -106.179688 96.296875 -93.265625 C 96.296875 -75.523438 89.84375 -63.101562 76.9375 -56 L 100.34375 -1.28125 L 100.34375 0 L 71.328125 0 Z M 37.828125 -71.328125 L 53.15625 -71.328125 C 58.539062 -71.328125 62.578125 -73.117188 65.265625 -76.703125 C 67.960938 -80.285156 69.3125 -85.070312 69.3125 -91.0625 C 69.3125 -104.46875 64.078125 -111.171875 53.609375 -111.171875 L 37.828125 -111.171875 Z M 37.828125 -71.328125 "/></g></g></g><g fill="#46c2db" fill-opacity="1"><g transform="translate(176.629975, 140.720808)"><g><path d="M 104.84375 -54.8125 C 104.84375 -36.875 100.601562 -22.945312 92.125 -13.03125 C 83.644531 -3.113281 71.878906 1.84375 56.828125 1.84375 C 41.828125 1.84375 30.039062 -3.066406 21.46875 -12.890625 C 12.90625 -22.722656 8.566406 -36.484375 8.453125 -54.171875 L 8.453125 -77.03125 C 8.453125 -95.382812 12.703125 -109.71875 21.203125 -120.03125 C 29.710938 -130.34375 41.523438 -135.5 56.640625 -135.5 C 71.515625 -135.5 83.234375 -130.429688 91.796875 -120.296875 C 100.367188 -110.171875 104.71875 -95.960938 104.84375 -77.671875 Z M 77.765625 -77.203125 C 77.765625 -89.265625 76.046875 -98.234375 72.609375 -104.109375 C 69.179688 -109.984375 63.859375 -112.921875 56.640625 -112.921875 C 49.484375 -112.921875 44.191406 -110.085938 40.765625 -104.421875 C 37.335938 -98.765625 35.5625 -90.148438 35.4375 -78.578125 L 35.4375 -54.8125 C 35.4375 -43.113281 37.179688 -34.492188 40.671875 -28.953125 C 44.160156 -23.421875 49.546875 -20.65625 56.828125 -20.65625 C 63.867188 -20.65625 69.101562 -23.363281 72.53125 -28.78125 C 75.957031 -34.195312 77.703125 -42.597656 77.765625 -53.984375 Z M 77.765625 -77.203125 "/></g></g></g><g fill="#000000" fill-opacity="1"><g transform="translate(276.941575, 140.720808)"><g><path d="M 10.734375 0 L 10.734375 -133.671875 L 46.078125 -133.671875 C 61.691406 -133.671875 74.132812 -128.710938 83.40625 -118.796875 C 92.675781 -108.878906 97.40625 -95.289062 97.59375 -78.03125 L 97.59375 -56.375 C 97.59375 -38.800781 92.953125 -25.007812 83.671875 -15 C 74.398438 -5 61.625 0 45.34375 0 Z M 37.734375 -111.171875 L 37.734375 -22.40625 L 45.8125 -22.40625 C 54.8125 -22.40625 61.144531 -24.773438 64.8125 -29.515625 C 68.488281 -34.253906 70.414062 -42.441406 70.59375 -54.078125 L 70.59375 -77.296875 C 70.59375 -89.785156 68.847656 -98.492188 65.359375 -103.421875 C 61.867188 -108.347656 55.9375 -110.929688 47.5625 -111.171875 Z M 37.734375 -111.171875 "/></g></g></g><g fill="#000000" fill-opacity="1"><g transform="translate(369.993588, 140.720808)"><g><path d="M 97.6875 -133.671875 L 97.6875 -41.125 C 97.5625 -27.226562 93.734375 -16.59375 86.203125 -9.21875 C 78.671875 -1.84375 67.867188 1.84375 53.796875 1.84375 C 39.472656 1.84375 28.53125 -1.890625 20.96875 -9.359375 C 13.414062 -16.828125 9.640625 -27.628906 9.640625 -41.765625 L 9.640625 -133.671875 L 36.8125 -133.671875 L 36.8125 -41.671875 C 36.8125 -34.085938 38.035156 -28.671875 40.484375 -25.421875 C 42.929688 -22.179688 47.367188 -20.5625 53.796875 -20.5625 C 60.222656 -20.5625 64.628906 -22.164062 67.015625 -25.375 C 69.398438 -28.59375 70.625 -33.875 70.6875 -41.21875 L 70.6875 -133.671875 Z M 97.6875 -133.671875 "/></g></g></g><g fill="#000000" fill-opacity="1"><g transform="translate(464.239004, 140.720808)"><g><path d="M 101.359375 -44.53125 C 100.679688 -29.289062 96.394531 -17.75 88.5 -9.90625 C 80.601562 -2.070312 69.460938 1.84375 55.078125 1.84375 C 39.960938 1.84375 28.378906 -3.128906 20.328125 -13.078125 C 12.285156 -23.023438 8.265625 -37.210938 8.265625 -55.640625 L 8.265625 -78.125 C 8.265625 -96.488281 12.425781 -110.640625 20.75 -120.578125 C 29.070312 -130.523438 40.640625 -135.5 55.453125 -135.5 C 70.015625 -135.5 81.070312 -131.425781 88.625 -123.28125 C 96.1875 -115.144531 100.488281 -103.457031 101.53125 -88.21875 L 74.453125 -88.21875 C 74.210938 -97.644531 72.757812 -104.148438 70.09375 -107.734375 C 67.425781 -111.316406 62.546875 -113.109375 55.453125 -113.109375 C 48.222656 -113.109375 43.109375 -110.582031 40.109375 -105.53125 C 37.117188 -100.476562 35.53125 -92.171875 35.34375 -80.609375 L 35.34375 -55.359375 C 35.34375 -42.078125 36.828125 -32.957031 39.796875 -28 C 42.765625 -23.039062 47.859375 -20.5625 55.078125 -20.5625 C 62.179688 -20.5625 67.078125 -22.289062 69.765625 -25.75 C 72.460938 -29.207031 73.992188 -35.46875 74.359375 -44.53125 Z M 101.359375 -44.53125 "/></g></g></g><g fill="#000000" fill-opacity="1"><g transform="translate(558.30082, 140.720808)"><g><path d="M 97.3125 -111.171875 L 64.265625 -111.171875 L 64.265625 0 L 37.1875 0 L 37.1875 -111.171875 L 4.6875 -111.171875 L 4.6875 -133.671875 L 97.3125 -133.671875 Z M 97.3125 -111.171875 "/></g></g></g><g fill="#000000" fill-opacity="1"><g transform="translate(647.221808, 140.720808)"><g><path d="M 38.921875 0 L 11.9375 0 L 11.9375 -133.671875 L 38.921875 -133.671875 Z M 38.921875 0 "/></g></g></g><g fill="#000000" fill-opacity="1"><g transform="translate(684.918255, 140.720808)"><g><path d="M 104.84375 -54.8125 C 104.84375 -36.875 100.601562 -22.945312 92.125 -13.03125 C 83.644531 -3.113281 71.878906 1.84375 56.828125 1.84375 C 41.828125 1.84375 30.039062 -3.066406 21.46875 -12.890625 C 12.90625 -22.722656 8.566406 -36.484375 8.453125 -54.171875 L 8.453125 -77.03125 C 8.453125 -95.382812 12.703125 -109.71875 21.203125 -120.03125 C 29.710938 -130.34375 41.523438 -135.5 56.640625 -135.5 C 71.515625 -135.5 83.234375 -130.429688 91.796875 -120.296875 C 100.367188 -110.171875 104.71875 -95.960938 104.84375 -77.671875 Z M 77.765625 -77.203125 C 77.765625 -89.265625 76.046875 -98.234375 72.609375 -104.109375 C 69.179688 -109.984375 63.859375 -112.921875 56.640625 -112.921875 C 49.484375 -112.921875 44.191406 -110.085938 40.765625 -104.421875 C 37.335938 -98.765625 35.5625 -90.148438 35.4375 -78.578125 L 35.4375 -54.8125 C 35.4375 -43.113281 37.179688 -34.492188 40.671875 -28.953125 C 44.160156 -23.421875 49.546875 -20.65625 56.828125 -20.65625 C 63.867188 -20.65625 69.101562 -23.363281 72.53125 -28.78125 C 75.957031 -34.195312 77.703125 -42.597656 77.765625 -53.984375 Z M 77.765625 -77.203125 "/></g></g></g><g fill="#000000" fill-opacity="1"><g transform="translate(785.222479, 140.720808)"><g><path d="M 104.203125 0 L 77.203125 0 L 37.734375 -87.671875 L 37.734375 0 L 10.734375 0 L 10.734375 -133.671875 L 37.734375 -133.671875 L 77.296875 -45.90625 L 77.296875 -133.671875 L 104.203125 -133.671875 Z M 104.203125 0 "/></g></g></g><g clip-path="url(#e892c1a48c)"><path fill="#46c2db" d="M 91.65625 39.183594 C 98.75 42.105469 104.921875 46.992188 109.394531 53.222656 C 114.402344 60.167969 117.082031 68.453125 117.082031 77.039062 C 117.082031 87.917969 112.761719 98.261719 105.070312 105.953125 C 97.378906 113.644531 87.035156 117.964844 76.15625 117.964844 L 65.484375 117.964844 L 65.484375 144.941406 L 31.386719 144.941406 L 31.386719 80.824219 L 52.191406 80.824219 C 60.386719 80.824219 68.136719 77.578125 73.921875 71.792969 C 79.703125 66.011719 82.953125 58.261719 82.953125 50.0625 C 82.953125 41.867188 79.703125 34.117188 73.921875 28.332031 C 68.167969 22.550781 60.386719 19.273438 52.21875 19.273438 L 17.554688 19.273438 L 17.554688 32.03125 L 52.191406 32.03125 C 56.988281 32.03125 61.519531 33.96875 64.917969 37.335938 C 68.289062 40.703125 70.226562 45.265625 70.226562 50.0625 C 70.226562 54.863281 68.289062 59.394531 64.917969 62.792969 C 61.550781 66.160156 56.988281 68.097656 52.191406 68.097656 L 17.554688 68.097656 L 17.554688 117.996094 L 7.417969 117.996094 L 7.417969 57.933594 L 52.21875 57.933594 C 54.308594 57.933594 56.273438 57.066406 57.765625 55.609375 C 59.226562 54.148438 60.089844 52.148438 60.089844 50.0625 C 60.089844 47.976562 59.226562 46.007812 57.765625 44.519531 C 56.304688 43.058594 54.308594 42.195312 52.21875 42.195312 L 7.417969 42.195312 L 7.417969 9.136719 L 52.21875 9.136719 C 63.101562 9.136719 73.445312 13.460938 81.132812 21.148438 C 86.113281 26.15625 89.777344 32.386719 91.65625 39.183594 Z M 55.351562 107.832031 L 76.1875 107.832031 C 84.382812 107.832031 92.132812 104.550781 97.917969 98.800781 C 103.699219 93.015625 106.949219 85.265625 106.949219 77.070312 C 106.949219 70.632812 104.953125 64.402344 101.164062 59.183594 C 98.960938 56.113281 96.21875 53.492188 93.085938 51.40625 C 92.757812 61.808594 88.46875 71.613281 81.105469 78.976562 C 73.414062 86.667969 63.070312 90.988281 52.191406 90.988281 L 41.519531 90.988281 L 41.519531 134.835938 L 55.351562 134.835938 Z M 55.351562 107.832031 " fill-opacity="1" fill-rule="evenodd"/></g></svg>